<?xml version="1.0" encoding="UTF-8" standalone="no"?>
<!DOCTYPE svg PUBLIC "-//W3C//DTD SVG 1.1//EN"
 "http://www.w3.org/Graphics/SVG/1.1/DTD/svg11.dtd">
<!-- Generated by graphviz version 2.44.1 (20200629.0846)
 -->
<!-- Title: dependencies Pages: 1 -->
<svg width="822pt" height="211pt"
 viewBox="0.00 0.00 822.00 211.00" xmlns="http://www.w3.org/2000/svg" xmlns:xlink="http://www.w3.org/1999/xlink">
<g id="graph0" class="graph" transform="scale(1 1) rotate(0) translate(4 207)">
<title>dependencies</title>
<polygon fill="white" stroke="transparent" points="-4,4 -4,-207 818,-207 818,4 -4,4"/>
<text text-anchor="start" x="386.01" y="-42.4" font-family="sans-serif" font-weight="bold" font-size="14.00">Legend</text>
<polygon fill="#ffffb3" stroke="transparent" points="173,-10 173,-30 193,-30 193,-10 173,-10"/>
<text text-anchor="start" x="196.63" y="-15.4" font-family="sans-serif" font-size="14.00"> &#160;Declarations</text>
<polygon fill="#8dd3c7" stroke="transparent" points="286,-10 286,-30 306,-30 306,-10 286,-10"/>
<text text-anchor="start" x="309.73" y="-15.4" font-family="sans-serif" font-size="14.00"> &#160;Module</text>
<polygon fill="#80b1d3" stroke="transparent" points="372,-10 372,-30 392,-30 392,-10 372,-10"/>
<text text-anchor="start" x="395.78" y="-15.4" font-family="sans-serif" font-size="14.00"> &#160;Bootstrap</text>
<polygon fill="#fdb462" stroke="transparent" points="469,-10 469,-30 489,-30 489,-10 469,-10"/>
<text text-anchor="start" x="492.67" y="-15.4" font-family="sans-serif" font-size="14.00"> &#160;Providers</text>
<polygon fill="#fb8072" stroke="transparent" points="565,-10 565,-30 585,-30 585,-10 565,-10"/>
<text text-anchor="start" x="588.73" y="-15.4" font-family="sans-serif" font-size="14.00"> &#160;Exports</text>
<g id="clust1" class="cluster">
<title>cluster_TestTrainingModule</title>
<polygon fill="none" stroke="black" stroke-dasharray="1,5" points="8,-70 8,-195 806,-195 806,-70 8,-70"/>
</g>
<g id="clust6" class="cluster">
<title>cluster_TestTrainingModule_imports</title>
<polygon fill="none" stroke="black" points="489,-78 489,-130 798,-130 798,-78 489,-78"/>
</g>
<g id="clust2" class="cluster">
<title>cluster_TestTrainingModule_declarations</title>
<polygon fill="none" stroke="black" points="16,-78 16,-130 481,-130 481,-78 16,-78"/>
</g>
<!-- DisplayComponent -->
<g id="node1" class="node">
<title>DisplayComponent</title>
<polygon fill="#ffffb3" stroke="black" points="473.38,-122 348.62,-122 348.62,-86 473.38,-86 473.38,-122"/>
<text text-anchor="middle" x="411" y="-99.8" font-family="Times,serif" font-size="14.00">DisplayComponent</text>
</g>
<!-- TestTrainingModule -->
<g id="node4" class="node">
<title>TestTrainingModule</title>
<polygon fill="#8dd3c7" stroke="black" points="476.86,-187 473.86,-191 452.86,-191 449.86,-187 345.14,-187 345.14,-151 476.86,-151 476.86,-187"/>
<text text-anchor="middle" x="411" y="-164.8" font-family="Times,serif" font-size="14.00">TestTrainingModule</text>
</g>
<!-- DisplayComponent&#45;&gt;TestTrainingModule -->
<g id="edge1" class="edge">
<title>DisplayComponent&#45;&gt;TestTrainingModule</title>
<path fill="none" stroke="black" d="M411,-122.11C411,-122.11 411,-140.99 411,-140.99"/>
<polygon fill="black" stroke="black" points="407.5,-140.99 411,-150.99 414.5,-140.99 407.5,-140.99"/>
</g>
<!-- InputTestComponent -->
<g id="node2" class="node">
<title>InputTestComponent</title>
<polygon fill="#ffffb3" stroke="black" points="330.49,-122 195.51,-122 195.51,-86 330.49,-86 330.49,-122"/>
<text text-anchor="middle" x="263" y="-99.8" font-family="Times,serif" font-size="14.00">InputTestComponent</text>
</g>
<!-- InputTestComponent&#45;&gt;TestTrainingModule -->
<g id="edge2" class="edge">
<title>InputTestComponent&#45;&gt;TestTrainingModule</title>
<path fill="none" stroke="black" d="M263,-122.02C263,-139.37 263,-163 263,-163 263,-163 334.79,-163 334.79,-163"/>
<polygon fill="black" stroke="black" points="334.79,-166.5 344.79,-163 334.79,-159.5 334.79,-166.5"/>
</g>
<!-- TestTrainingComponent -->
<g id="node3" class="node">
<title>TestTrainingComponent</title>
<polygon fill="#ffffb3" stroke="black" points="177.64,-122 24.36,-122 24.36,-86 177.64,-86 177.64,-122"/>
<text text-anchor="middle" x="101" y="-99.8" font-family="Times,serif" font-size="14.00">TestTrainingComponent</text>
</g>
<!-- TestTrainingComponent&#45;&gt;TestTrainingModule -->
<g id="edge3" class="edge">
<title>TestTrainingComponent&#45;&gt;TestTrainingModule</title>
<path fill="none" stroke="black" d="M101,-122.28C101,-143.32 101,-175 101,-175 101,-175 334.88,-175 334.88,-175"/>
<polygon fill="black" stroke="black" points="334.88,-178.5 344.88,-175 334.88,-171.5 334.88,-178.5"/>
</g>
<!-- SharedModule -->
<g id="node5" class="node">
<title>SharedModule</title>
<polygon fill="#8dd3c7" stroke="black" points="790.42,-122 787.42,-126 766.42,-126 763.42,-122 691.58,-122 691.58,-86 790.42,-86 790.42,-122"/>
<text text-anchor="middle" x="741" y="-99.8" font-family="Times,serif" font-size="14.00">SharedModule</text>
</g>
<!-- SharedModule&#45;&gt;TestTrainingModule -->
<g id="edge4" class="edge">
<title>SharedModule&#45;&gt;TestTrainingModule</title>
<path fill="none" stroke="black" d="M741,-122.28C741,-143.32 741,-175 741,-175 741,-175 486.99,-175 486.99,-175"/>
<polygon fill="black" stroke="black" points="486.99,-171.5 476.99,-175 486.99,-178.5 486.99,-171.5"/>
</g>
<!-- TestTrainingRoutingModule -->
<g id="node6" class="node">
<title>TestTrainingRoutingModule</title>
<polygon fill="#8dd3c7" stroke="black" points="673.48,-122 670.48,-126 649.48,-126 646.48,-122 496.52,-122 496.52,-86 673.48,-86 673.48,-122"/>
<text text-anchor="middle" x="585" y="-99.8" font-family="Times,serif" font-size="14.00">TestTrainingRoutingModule</text>
</g>
<!-- TestTrainingRoutingModule&#45;&gt;TestTrainingModule -->
<g id="edge5" class="edge">
<title>TestTrainingRoutingModule&#45;&gt;TestTrainingModule</title>
<path fill="none" stroke="black" d="M585,-122.02C585,-139.37 585,-163 585,-163 585,-163 487.28,-163 487.28,-163"/>
<polygon fill="black" stroke="black" points="487.28,-159.5 477.28,-163 487.28,-166.5 487.28,-159.5"/>
</g>
</g>
</svg>
