<?xml version="1.0" encoding="UTF-8" standalone="no"?>
<!DOCTYPE svg PUBLIC "-//W3C//DTD SVG 1.1//EN"
 "http://www.w3.org/Graphics/SVG/1.1/DTD/svg11.dtd">
<!-- Generated by graphviz version 2.44.1 (20200629.0846)
 -->
<!-- Title: dependencies Pages: 1 -->
<svg width="504pt" height="211pt"
 viewBox="0.00 0.00 504.00 211.00" xmlns="http://www.w3.org/2000/svg" xmlns:xlink="http://www.w3.org/1999/xlink">
<g id="graph0" class="graph" transform="scale(1 1) rotate(0) translate(4 207)">
<title>dependencies</title>
<polygon fill="white" stroke="transparent" points="-4,4 -4,-207 500,-207 500,4 -4,4"/>
<text text-anchor="start" x="227.01" y="-42.4" font-family="sans-serif" font-weight="bold" font-size="14.00">Legend</text>
<polygon fill="#ffffb3" stroke="transparent" points="14,-10 14,-30 34,-30 34,-10 14,-10"/>
<text text-anchor="start" x="37.63" y="-15.4" font-family="sans-serif" font-size="14.00"> &#160;Declarations</text>
<polygon fill="#8dd3c7" stroke="transparent" points="127,-10 127,-30 147,-30 147,-10 127,-10"/>
<text text-anchor="start" x="150.73" y="-15.4" font-family="sans-serif" font-size="14.00"> &#160;Module</text>
<polygon fill="#80b1d3" stroke="transparent" points="213,-10 213,-30 233,-30 233,-10 213,-10"/>
<text text-anchor="start" x="236.78" y="-15.4" font-family="sans-serif" font-size="14.00"> &#160;Bootstrap</text>
<polygon fill="#fdb462" stroke="transparent" points="310,-10 310,-30 330,-30 330,-10 310,-10"/>
<text text-anchor="start" x="333.67" y="-15.4" font-family="sans-serif" font-size="14.00"> &#160;Providers</text>
<polygon fill="#fb8072" stroke="transparent" points="406,-10 406,-30 426,-30 426,-10 406,-10"/>
<text text-anchor="start" x="429.73" y="-15.4" font-family="sans-serif" font-size="14.00"> &#160;Exports</text>
<g id="clust1" class="cluster">
<title>cluster_DocscModule</title>
<polygon fill="none" stroke="black" stroke-dasharray="1,5" points="92,-70 92,-195 404,-195 404,-70 92,-70"/>
</g>
<g id="clust2" class="cluster">
<title>cluster_DocscModule_declarations</title>
<polygon fill="none" stroke="black" points="264,-78 264,-130 396,-130 396,-78 264,-78"/>
</g>
<g id="clust4" class="cluster">
<title>cluster_DocscModule_imports</title>
<polygon fill="none" stroke="black" points="100,-78 100,-130 256,-130 256,-78 100,-78"/>
</g>
<!-- DocscComponent -->
<g id="node1" class="node">
<title>DocscComponent</title>
<polygon fill="#ffffb3" stroke="black" points="388.31,-122 271.69,-122 271.69,-86 388.31,-86 388.31,-122"/>
<text text-anchor="middle" x="330" y="-99.8" font-family="Times,serif" font-size="14.00">DocscComponent</text>
</g>
<!-- DocscModule -->
<g id="node2" class="node">
<title>DocscModule</title>
<polygon fill="#8dd3c7" stroke="black" points="301.03,-187 298.03,-191 277.03,-191 274.03,-187 206.97,-187 206.97,-151 301.03,-151 301.03,-187"/>
<text text-anchor="middle" x="254" y="-164.8" font-family="Times,serif" font-size="14.00">DocscModule</text>
</g>
<!-- DocscComponent&#45;&gt;DocscModule -->
<g id="edge1" class="edge">
<title>DocscComponent&#45;&gt;DocscModule</title>
<path fill="none" stroke="black" d="M286.55,-122.11C286.55,-122.11 286.55,-140.99 286.55,-140.99"/>
<polygon fill="black" stroke="black" points="283.05,-140.99 286.55,-150.99 290.05,-140.99 283.05,-140.99"/>
</g>
<!-- DocscRoutingModule -->
<g id="node3" class="node">
<title>DocscRoutingModule</title>
<polygon fill="#8dd3c7" stroke="black" points="247.65,-122 244.65,-126 223.65,-126 220.65,-122 108.35,-122 108.35,-86 247.65,-86 247.65,-122"/>
<text text-anchor="middle" x="178" y="-99.8" font-family="Times,serif" font-size="14.00">DocscRoutingModule</text>
</g>
<!-- DocscRoutingModule&#45;&gt;DocscModule -->
<g id="edge2" class="edge">
<title>DocscRoutingModule&#45;&gt;DocscModule</title>
<path fill="none" stroke="black" d="M227.28,-122.11C227.28,-122.11 227.28,-140.99 227.28,-140.99"/>
<polygon fill="black" stroke="black" points="223.78,-140.99 227.28,-150.99 230.78,-140.99 223.78,-140.99"/>
</g>
</g>
</svg>
