<?xml version="1.0" encoding="UTF-8" standalone="no"?>
<!DOCTYPE svg PUBLIC "-//W3C//DTD SVG 1.1//EN"
 "http://www.w3.org/Graphics/SVG/1.1/DTD/svg11.dtd">
<!-- Generated by graphviz version 2.44.1 (20200629.0846)
 -->
<!-- Title: dependencies Pages: 1 -->
<svg width="1316pt" height="211pt"
 viewBox="0.00 0.00 1316.00 211.00" xmlns="http://www.w3.org/2000/svg" xmlns:xlink="http://www.w3.org/1999/xlink">
<g id="graph0" class="graph" transform="scale(1 1) rotate(0) translate(4 207)">
<title>dependencies</title>
<polygon fill="white" stroke="transparent" points="-4,4 -4,-207 1312,-207 1312,4 -4,4"/>
<text text-anchor="start" x="633.01" y="-42.4" font-family="sans-serif" font-weight="bold" font-size="14.00">Legend</text>
<polygon fill="#ffffb3" stroke="transparent" points="420,-10 420,-30 440,-30 440,-10 420,-10"/>
<text text-anchor="start" x="443.63" y="-15.4" font-family="sans-serif" font-size="14.00"> &#160;Declarations</text>
<polygon fill="#8dd3c7" stroke="transparent" points="533,-10 533,-30 553,-30 553,-10 533,-10"/>
<text text-anchor="start" x="556.73" y="-15.4" font-family="sans-serif" font-size="14.00"> &#160;Module</text>
<polygon fill="#80b1d3" stroke="transparent" points="619,-10 619,-30 639,-30 639,-10 619,-10"/>
<text text-anchor="start" x="642.78" y="-15.4" font-family="sans-serif" font-size="14.00"> &#160;Bootstrap</text>
<polygon fill="#fdb462" stroke="transparent" points="716,-10 716,-30 736,-30 736,-10 716,-10"/>
<text text-anchor="start" x="739.67" y="-15.4" font-family="sans-serif" font-size="14.00"> &#160;Providers</text>
<polygon fill="#fb8072" stroke="transparent" points="812,-10 812,-30 832,-30 832,-10 812,-10"/>
<text text-anchor="start" x="835.73" y="-15.4" font-family="sans-serif" font-size="14.00"> &#160;Exports</text>
<g id="clust1" class="cluster">
<title>cluster_TourModule</title>
<polygon fill="none" stroke="black" stroke-dasharray="1,5" points="8,-70 8,-195 1300,-195 1300,-70 8,-70"/>
</g>
<g id="clust2" class="cluster">
<title>cluster_TourModule_declarations</title>
<polygon fill="none" stroke="black" points="288,-78 288,-130 1292,-130 1292,-78 288,-78"/>
</g>
<g id="clust10" class="cluster">
<title>cluster_TourModule_imports</title>
<polygon fill="none" stroke="black" points="16,-78 16,-130 280,-130 280,-78 16,-78"/>
</g>
<!-- CodebookComponent -->
<g id="node1" class="node">
<title>CodebookComponent</title>
<polygon fill="#ffffb3" stroke="black" points="1284.38,-122 1145.62,-122 1145.62,-86 1284.38,-86 1284.38,-122"/>
<text text-anchor="middle" x="1215" y="-99.8" font-family="Times,serif" font-size="14.00">CodebookComponent</text>
</g>
<!-- TourModule -->
<g id="node8" class="node">
<title>TourModule</title>
<polygon fill="#8dd3c7" stroke="black" points="674.26,-187 671.26,-191 650.26,-191 647.26,-187 587.74,-187 587.74,-151 674.26,-151 674.26,-187"/>
<text text-anchor="middle" x="631" y="-164.8" font-family="Times,serif" font-size="14.00">TourModule</text>
</g>
<!-- CodebookComponent&#45;&gt;TourModule -->
<g id="edge1" class="edge">
<title>CodebookComponent&#45;&gt;TourModule</title>
<path fill="none" stroke="black" d="M1215,-122.01C1215,-144.49 1215,-180 1215,-180 1215,-180 684.42,-180 684.42,-180"/>
<polygon fill="black" stroke="black" points="684.42,-176.5 674.42,-180 684.42,-183.5 684.42,-176.5"/>
</g>
<!-- EmbeddingComponent -->
<g id="node2" class="node">
<title>EmbeddingComponent</title>
<polygon fill="#ffffb3" stroke="black" points="1127.88,-122 982.12,-122 982.12,-86 1127.88,-86 1127.88,-122"/>
<text text-anchor="middle" x="1055" y="-99.8" font-family="Times,serif" font-size="14.00">EmbeddingComponent</text>
</g>
<!-- EmbeddingComponent&#45;&gt;TourModule -->
<g id="edge2" class="edge">
<title>EmbeddingComponent&#45;&gt;TourModule</title>
<path fill="none" stroke="black" d="M1055,-122.13C1055,-142.57 1055,-173 1055,-173 1055,-173 684.38,-173 684.38,-173"/>
<polygon fill="black" stroke="black" points="684.38,-169.5 674.38,-173 684.38,-176.5 684.38,-169.5"/>
</g>
<!-- FinalStepComponent -->
<g id="node3" class="node">
<title>FinalStepComponent</title>
<polygon fill="#ffffb3" stroke="black" points="964.5,-122 829.5,-122 829.5,-86 964.5,-86 964.5,-122"/>
<text text-anchor="middle" x="897" y="-99.8" font-family="Times,serif" font-size="14.00">FinalStepComponent</text>
</g>
<!-- FinalStepComponent&#45;&gt;TourModule -->
<g id="edge3" class="edge">
<title>FinalStepComponent&#45;&gt;TourModule</title>
<path fill="none" stroke="black" d="M897,-122.27C897,-140.56 897,-166 897,-166 897,-166 684.33,-166 684.33,-166"/>
<polygon fill="black" stroke="black" points="684.33,-162.5 674.33,-166 684.33,-169.5 684.33,-162.5"/>
</g>
<!-- InputComponent -->
<g id="node4" class="node">
<title>InputComponent</title>
<polygon fill="#ffffb3" stroke="black" points="811.38,-122 700.62,-122 700.62,-86 811.38,-86 811.38,-122"/>
<text text-anchor="middle" x="756" y="-99.8" font-family="Times,serif" font-size="14.00">InputComponent</text>
</g>
<!-- InputComponent&#45;&gt;TourModule -->
<g id="edge4" class="edge">
<title>InputComponent&#45;&gt;TourModule</title>
<path fill="none" stroke="black" d="M756,-122.01C756,-138.05 756,-159 756,-159 756,-159 684.37,-159 684.37,-159"/>
<polygon fill="black" stroke="black" points="684.37,-155.5 674.37,-159 684.37,-162.5 684.37,-155.5"/>
</g>
<!-- NlpComponent -->
<g id="node5" class="node">
<title>NlpComponent</title>
<polygon fill="#ffffb3" stroke="black" points="682.33,-122 579.67,-122 579.67,-86 682.33,-86 682.33,-122"/>
<text text-anchor="middle" x="631" y="-99.8" font-family="Times,serif" font-size="14.00">NlpComponent</text>
</g>
<!-- NlpComponent&#45;&gt;TourModule -->
<g id="edge5" class="edge">
<title>NlpComponent&#45;&gt;TourModule</title>
<path fill="none" stroke="black" d="M631,-122.11C631,-122.11 631,-140.99 631,-140.99"/>
<polygon fill="black" stroke="black" points="627.5,-140.99 631,-150.99 634.5,-140.99 627.5,-140.99"/>
</g>
<!-- TourComponent -->
<g id="node6" class="node">
<title>TourComponent</title>
<polygon fill="#ffffb3" stroke="black" points="562.05,-122 453.95,-122 453.95,-86 562.05,-86 562.05,-122"/>
<text text-anchor="middle" x="508" y="-99.8" font-family="Times,serif" font-size="14.00">TourComponent</text>
</g>
<!-- TourComponent&#45;&gt;TourModule -->
<g id="edge6" class="edge">
<title>TourComponent&#45;&gt;TourModule</title>
<path fill="none" stroke="black" d="M508,-122.01C508,-138.05 508,-159 508,-159 508,-159 577.63,-159 577.63,-159"/>
<polygon fill="black" stroke="black" points="577.63,-162.5 587.63,-159 577.63,-155.5 577.63,-162.5"/>
</g>
<!-- VectorizerComponent -->
<g id="node7" class="node">
<title>VectorizerComponent</title>
<polygon fill="#ffffb3" stroke="black" points="436.4,-122 295.6,-122 295.6,-86 436.4,-86 436.4,-122"/>
<text text-anchor="middle" x="366" y="-99.8" font-family="Times,serif" font-size="14.00">VectorizerComponent</text>
</g>
<!-- VectorizerComponent&#45;&gt;TourModule -->
<g id="edge7" class="edge">
<title>VectorizerComponent&#45;&gt;TourModule</title>
<path fill="none" stroke="black" d="M366,-122.27C366,-140.56 366,-166 366,-166 366,-166 577.54,-166 577.54,-166"/>
<polygon fill="black" stroke="black" points="577.54,-169.5 587.54,-166 577.54,-162.5 577.54,-169.5"/>
</g>
<!-- SharedModule -->
<g id="node9" class="node">
<title>SharedModule</title>
<polygon fill="#8dd3c7" stroke="black" points="272.42,-122 269.42,-126 248.42,-126 245.42,-122 173.58,-122 173.58,-86 272.42,-86 272.42,-122"/>
<text text-anchor="middle" x="223" y="-99.8" font-family="Times,serif" font-size="14.00">SharedModule</text>
</g>
<!-- SharedModule&#45;&gt;TourModule -->
<g id="edge8" class="edge">
<title>SharedModule&#45;&gt;TourModule</title>
<path fill="none" stroke="black" d="M223,-122.13C223,-142.57 223,-173 223,-173 223,-173 577.72,-173 577.72,-173"/>
<polygon fill="black" stroke="black" points="577.72,-176.5 587.72,-173 577.72,-169.5 577.72,-176.5"/>
</g>
<!-- TourRoutingModule -->
<g id="node10" class="node">
<title>TourRoutingModule</title>
<polygon fill="#8dd3c7" stroke="black" points="155.88,-122 152.88,-126 131.88,-126 128.88,-122 24.12,-122 24.12,-86 155.88,-86 155.88,-122"/>
<text text-anchor="middle" x="90" y="-99.8" font-family="Times,serif" font-size="14.00">TourRoutingModule</text>
</g>
<!-- TourRoutingModule&#45;&gt;TourModule -->
<g id="edge9" class="edge">
<title>TourRoutingModule&#45;&gt;TourModule</title>
<path fill="none" stroke="black" d="M90,-122.01C90,-144.49 90,-180 90,-180 90,-180 577.64,-180 577.64,-180"/>
<polygon fill="black" stroke="black" points="577.64,-183.5 587.64,-180 577.64,-176.5 577.64,-183.5"/>
</g>
</g>
</svg>
