<?xml version="1.0" encoding="UTF-8" standalone="no"?>
<!DOCTYPE svg PUBLIC "-//W3C//DTD SVG 1.1//EN"
 "http://www.w3.org/Graphics/SVG/1.1/DTD/svg11.dtd">
<!-- Generated by graphviz version 2.44.1 (20200629.0846)
 -->
<!-- Title: dependencies Pages: 1 -->
<svg width="504pt" height="211pt"
 viewBox="0.00 0.00 504.00 211.00" xmlns="http://www.w3.org/2000/svg" xmlns:xlink="http://www.w3.org/1999/xlink">
<g id="graph0" class="graph" transform="scale(1 1) rotate(0) translate(4 207)">
<title>dependencies</title>
<polygon fill="white" stroke="transparent" points="-4,4 -4,-207 500,-207 500,4 -4,4"/>
<text text-anchor="start" x="227.01" y="-42.4" font-family="sans-serif" font-weight="bold" font-size="14.00">Legend</text>
<polygon fill="#ffffb3" stroke="transparent" points="14,-10 14,-30 34,-30 34,-10 14,-10"/>
<text text-anchor="start" x="37.63" y="-15.4" font-family="sans-serif" font-size="14.00"> &#160;Declarations</text>
<polygon fill="#8dd3c7" stroke="transparent" points="127,-10 127,-30 147,-30 147,-10 127,-10"/>
<text text-anchor="start" x="150.73" y="-15.4" font-family="sans-serif" font-size="14.00"> &#160;Module</text>
<polygon fill="#80b1d3" stroke="transparent" points="213,-10 213,-30 233,-30 233,-10 213,-10"/>
<text text-anchor="start" x="236.78" y="-15.4" font-family="sans-serif" font-size="14.00"> &#160;Bootstrap</text>
<polygon fill="#fdb462" stroke="transparent" points="310,-10 310,-30 330,-30 330,-10 310,-10"/>
<text text-anchor="start" x="333.67" y="-15.4" font-family="sans-serif" font-size="14.00"> &#160;Providers</text>
<polygon fill="#fb8072" stroke="transparent" points="406,-10 406,-30 426,-30 426,-10 406,-10"/>
<text text-anchor="start" x="429.73" y="-15.4" font-family="sans-serif" font-size="14.00"> &#160;Exports</text>
<g id="clust1" class="cluster">
<title>cluster_IndexModule</title>
<polygon fill="none" stroke="black" stroke-dasharray="1,5" points="37,-70 37,-195 459,-195 459,-70 37,-70"/>
</g>
<g id="clust4" class="cluster">
<title>cluster_IndexModule_imports</title>
<polygon fill="none" stroke="black" points="183,-78 183,-130 451,-130 451,-78 183,-78"/>
</g>
<g id="clust2" class="cluster">
<title>cluster_IndexModule_declarations</title>
<polygon fill="none" stroke="black" points="45,-78 45,-130 175,-130 175,-78 45,-78"/>
</g>
<!-- IndexComponent -->
<g id="node1" class="node">
<title>IndexComponent</title>
<polygon fill="#ffffb3" stroke="black" points="166.71,-122 53.29,-122 53.29,-86 166.71,-86 166.71,-122"/>
<text text-anchor="middle" x="110" y="-99.8" font-family="Times,serif" font-size="14.00">IndexComponent</text>
</g>
<!-- IndexModule -->
<g id="node2" class="node">
<title>IndexModule</title>
<polygon fill="#8dd3c7" stroke="black" points="285.93,-187 282.93,-191 261.93,-191 258.93,-187 194.07,-187 194.07,-151 285.93,-151 285.93,-187"/>
<text text-anchor="middle" x="240" y="-164.8" font-family="Times,serif" font-size="14.00">IndexModule</text>
</g>
<!-- IndexComponent&#45;&gt;IndexModule -->
<g id="edge1" class="edge">
<title>IndexComponent&#45;&gt;IndexModule</title>
<path fill="none" stroke="black" d="M110,-122.11C110,-141.34 110,-169 110,-169 110,-169 184.17,-169 184.17,-169"/>
<polygon fill="black" stroke="black" points="184.17,-172.5 194.17,-169 184.17,-165.5 184.17,-172.5"/>
</g>
<!-- IndexRoutingModule -->
<g id="node3" class="node">
<title>IndexRoutingModule</title>
<polygon fill="#8dd3c7" stroke="black" points="443.04,-122 440.04,-126 419.04,-126 416.04,-122 306.96,-122 306.96,-86 443.04,-86 443.04,-122"/>
<text text-anchor="middle" x="375" y="-99.8" font-family="Times,serif" font-size="14.00">IndexRoutingModule</text>
</g>
<!-- IndexRoutingModule&#45;&gt;IndexModule -->
<g id="edge2" class="edge">
<title>IndexRoutingModule&#45;&gt;IndexModule</title>
<path fill="none" stroke="black" d="M375,-122.11C375,-141.34 375,-169 375,-169 375,-169 296.08,-169 296.08,-169"/>
<polygon fill="black" stroke="black" points="296.08,-165.5 286.08,-169 296.08,-172.5 296.08,-165.5"/>
</g>
<!-- SharedModule -->
<g id="node4" class="node">
<title>SharedModule</title>
<polygon fill="#8dd3c7" stroke="black" points="289.42,-122 286.42,-126 265.42,-126 262.42,-122 190.58,-122 190.58,-86 289.42,-86 289.42,-122"/>
<text text-anchor="middle" x="240" y="-99.8" font-family="Times,serif" font-size="14.00">SharedModule</text>
</g>
<!-- SharedModule&#45;&gt;IndexModule -->
<g id="edge3" class="edge">
<title>SharedModule&#45;&gt;IndexModule</title>
<path fill="none" stroke="black" d="M240,-122.11C240,-122.11 240,-140.99 240,-140.99"/>
<polygon fill="black" stroke="black" points="236.5,-140.99 240,-150.99 243.5,-140.99 236.5,-140.99"/>
</g>
</g>
</svg>
