<?xml version="1.0" encoding="UTF-8" standalone="no"?>
<!DOCTYPE svg PUBLIC "-//W3C//DTD SVG 1.1//EN"
 "http://www.w3.org/Graphics/SVG/1.1/DTD/svg11.dtd">
<!-- Generated by graphviz version 2.44.1 (20200629.0846)
 -->
<!-- Title: dependencies Pages: 1 -->
<svg width="770pt" height="284pt"
 viewBox="0.00 0.00 770.00 284.00" xmlns="http://www.w3.org/2000/svg" xmlns:xlink="http://www.w3.org/1999/xlink">
<g id="graph0" class="graph" transform="scale(1 1) rotate(0) translate(4 280)">
<title>dependencies</title>
<polygon fill="white" stroke="transparent" points="-4,4 -4,-280 766,-280 766,4 -4,4"/>
<text text-anchor="start" x="360.01" y="-42.4" font-family="sans-serif" font-weight="bold" font-size="14.00">Legend</text>
<polygon fill="#ffffb3" stroke="transparent" points="147,-10 147,-30 167,-30 167,-10 147,-10"/>
<text text-anchor="start" x="170.63" y="-15.4" font-family="sans-serif" font-size="14.00"> &#160;Declarations</text>
<polygon fill="#8dd3c7" stroke="transparent" points="260,-10 260,-30 280,-30 280,-10 260,-10"/>
<text text-anchor="start" x="283.73" y="-15.4" font-family="sans-serif" font-size="14.00"> &#160;Module</text>
<polygon fill="#80b1d3" stroke="transparent" points="346,-10 346,-30 366,-30 366,-10 346,-10"/>
<text text-anchor="start" x="369.78" y="-15.4" font-family="sans-serif" font-size="14.00"> &#160;Bootstrap</text>
<polygon fill="#fdb462" stroke="transparent" points="443,-10 443,-30 463,-30 463,-10 443,-10"/>
<text text-anchor="start" x="466.67" y="-15.4" font-family="sans-serif" font-size="14.00"> &#160;Providers</text>
<polygon fill="#fb8072" stroke="transparent" points="539,-10 539,-30 559,-30 559,-10 539,-10"/>
<text text-anchor="start" x="562.73" y="-15.4" font-family="sans-serif" font-size="14.00"> &#160;Exports</text>
<g id="clust1" class="cluster">
<title>cluster_SharedModule</title>
<polygon fill="none" stroke="black" stroke-dasharray="1,5" points="8,-70 8,-268 754,-268 754,-70 8,-70"/>
</g>
<g id="clust7" class="cluster">
<title>cluster_SharedModule_imports</title>
<polygon fill="none" stroke="black" points="586,-78 586,-130 746,-130 746,-78 586,-78"/>
</g>
<g id="clust8" class="cluster">
<title>cluster_SharedModule_exports</title>
<polygon fill="none" stroke="black" points="168,-208 168,-260 584,-260 584,-208 168,-208"/>
</g>
<g id="clust2" class="cluster">
<title>cluster_SharedModule_declarations</title>
<polygon fill="none" stroke="black" points="16,-78 16,-130 578,-130 578,-78 16,-78"/>
</g>
<!-- FooterComponent -->
<g id="node1" class="node">
<title>FooterComponent</title>
<polygon fill="#ffffb3" stroke="black" points="569.88,-122 452.12,-122 452.12,-86 569.88,-86 569.88,-122"/>
<text text-anchor="middle" x="511" y="-99.8" font-family="Times,serif" font-size="14.00">FooterComponent</text>
</g>
<!-- SharedModule -->
<g id="node5" class="node">
<title>SharedModule</title>
<polygon fill="#8dd3c7" stroke="black" points="422.42,-187 419.42,-191 398.42,-191 395.42,-187 323.58,-187 323.58,-151 422.42,-151 422.42,-187"/>
<text text-anchor="middle" x="373" y="-164.8" font-family="Times,serif" font-size="14.00">SharedModule</text>
</g>
<!-- FooterComponent&#45;&gt;SharedModule -->
<g id="edge1" class="edge">
<title>FooterComponent&#45;&gt;SharedModule</title>
<path fill="none" stroke="black" d="M531.4,-122.03C531.4,-138.4 531.4,-160 531.4,-160 531.4,-160 432.25,-160 432.25,-160"/>
<polygon fill="black" stroke="black" points="432.25,-156.5 422.25,-160 432.25,-163.5 432.25,-156.5"/>
</g>
<!-- NavbarComponent -->
<g id="node2" class="node">
<title>NavbarComponent</title>
<polygon fill="#ffffb3" stroke="black" points="434.03,-122 311.97,-122 311.97,-86 434.03,-86 434.03,-122"/>
<text text-anchor="middle" x="373" y="-99.8" font-family="Times,serif" font-size="14.00">NavbarComponent</text>
</g>
<!-- NavbarComponent&#45;&gt;SharedModule -->
<g id="edge2" class="edge">
<title>NavbarComponent&#45;&gt;SharedModule</title>
<path fill="none" stroke="black" d="M373,-122.11C373,-122.11 373,-140.99 373,-140.99"/>
<polygon fill="black" stroke="black" points="369.5,-140.99 373,-150.99 376.5,-140.99 369.5,-140.99"/>
</g>
<!-- NotFoundComponent -->
<g id="node3" class="node">
<title>NotFoundComponent</title>
<polygon fill="#ffffb3" stroke="black" points="294.11,-122 155.89,-122 155.89,-86 294.11,-86 294.11,-122"/>
<text text-anchor="middle" x="225" y="-99.8" font-family="Times,serif" font-size="14.00">NotFoundComponent</text>
</g>
<!-- NotFoundComponent&#45;&gt;SharedModule -->
<g id="edge3" class="edge">
<title>NotFoundComponent&#45;&gt;SharedModule</title>
<path fill="none" stroke="black" d="M214.55,-122.03C214.55,-138.4 214.55,-160 214.55,-160 214.55,-160 313.73,-160 313.73,-160"/>
<polygon fill="black" stroke="black" points="313.73,-163.5 323.73,-160 313.73,-156.5 313.73,-163.5"/>
</g>
<!-- TableComponent -->
<g id="node4" class="node">
<title>TableComponent</title>
<polygon fill="#ffffb3" stroke="black" points="137.7,-122 24.3,-122 24.3,-86 137.7,-86 137.7,-122"/>
<text text-anchor="middle" x="81" y="-99.8" font-family="Times,serif" font-size="14.00">TableComponent</text>
</g>
<!-- TableComponent&#45;&gt;SharedModule -->
<g id="edge4" class="edge">
<title>TableComponent&#45;&gt;SharedModule</title>
<path fill="none" stroke="black" d="M81,-122.11C81,-141.34 81,-169 81,-169 81,-169 313.47,-169 313.47,-169"/>
<polygon fill="black" stroke="black" points="313.47,-172.5 323.47,-169 313.47,-165.5 313.47,-172.5"/>
</g>
<!-- FooterComponent  -->
<g id="node7" class="node">
<title>FooterComponent </title>
<polygon fill="#fb8072" stroke="black" points="575.88,-252 454.12,-252 454.12,-216 575.88,-216 575.88,-252"/>
<text text-anchor="middle" x="515" y="-229.8" font-family="Times,serif" font-size="14.00">FooterComponent </text>
</g>
<!-- SharedModule&#45;&gt;FooterComponent  -->
<g id="edge6" class="edge">
<title>SharedModule&#45;&gt;FooterComponent </title>
<path fill="none" stroke="black" stroke-dasharray="5,2" d="M422.44,-178C455.46,-178 492.85,-178 492.85,-178 492.85,-178 492.85,-205.97 492.85,-205.97"/>
<polygon fill="black" stroke="black" points="489.35,-205.97 492.85,-215.97 496.35,-205.97 489.35,-205.97"/>
</g>
<!-- NavbarComponent  -->
<g id="node8" class="node">
<title>NavbarComponent </title>
<polygon fill="#fb8072" stroke="black" points="436.03,-252 309.97,-252 309.97,-216 436.03,-216 436.03,-252"/>
<text text-anchor="middle" x="373" y="-229.8" font-family="Times,serif" font-size="14.00">NavbarComponent </text>
</g>
<!-- SharedModule&#45;&gt;NavbarComponent  -->
<g id="edge7" class="edge">
<title>SharedModule&#45;&gt;NavbarComponent </title>
<path fill="none" stroke="black" stroke-dasharray="5,2" d="M373,-187.11C373,-187.11 373,-205.99 373,-205.99"/>
<polygon fill="black" stroke="black" points="369.5,-205.99 373,-215.99 376.5,-205.99 369.5,-205.99"/>
</g>
<!-- TableComponent  -->
<g id="node9" class="node">
<title>TableComponent </title>
<polygon fill="#fb8072" stroke="black" points="292.21,-252 175.79,-252 175.79,-216 292.21,-216 292.21,-252"/>
<text text-anchor="middle" x="234" y="-229.8" font-family="Times,serif" font-size="14.00">TableComponent </text>
</g>
<!-- SharedModule&#45;&gt;TableComponent  -->
<g id="edge8" class="edge">
<title>SharedModule&#45;&gt;TableComponent </title>
<path fill="none" stroke="black" stroke-dasharray="5,2" d="M323.68,-178C290.75,-178 253.45,-178 253.45,-178 253.45,-178 253.45,-205.97 253.45,-205.97"/>
<polygon fill="black" stroke="black" points="249.95,-205.97 253.45,-215.97 256.95,-205.97 249.95,-205.97"/>
</g>
<!-- SharedRoutingModule -->
<g id="node6" class="node">
<title>SharedRoutingModule</title>
<polygon fill="#8dd3c7" stroke="black" points="737.54,-122 734.54,-126 713.54,-126 710.54,-122 594.46,-122 594.46,-86 737.54,-86 737.54,-122"/>
<text text-anchor="middle" x="666" y="-99.8" font-family="Times,serif" font-size="14.00">SharedRoutingModule</text>
</g>
<!-- SharedRoutingModule&#45;&gt;SharedModule -->
<g id="edge5" class="edge">
<title>SharedRoutingModule&#45;&gt;SharedModule</title>
<path fill="none" stroke="black" d="M666,-122.11C666,-141.34 666,-169 666,-169 666,-169 432.37,-169 432.37,-169"/>
<polygon fill="black" stroke="black" points="432.37,-165.5 422.37,-169 432.37,-172.5 432.37,-165.5"/>
</g>
</g>
</svg>
