<?xml version="1.0" encoding="UTF-8" standalone="no"?>
<!DOCTYPE svg PUBLIC "-//W3C//DTD SVG 1.1//EN"
 "http://www.w3.org/Graphics/SVG/1.1/DTD/svg11.dtd">
<!-- Generated by graphviz version 2.44.1 (20200629.0846)
 -->
<!-- Title: dependencies Pages: 1 -->
<svg width="5100pt" height="366pt"
 viewBox="0.00 0.00 5100.00 366.00" xmlns="http://www.w3.org/2000/svg" xmlns:xlink="http://www.w3.org/1999/xlink">
<g id="graph0" class="graph" transform="scale(1 1) rotate(0) translate(4 362)">
<title>dependencies</title>
<polygon fill="white" stroke="transparent" points="-4,4 -4,-362 5096,-362 5096,4 -4,4"/>
<text text-anchor="start" x="2525.01" y="-42.4" font-family="sans-serif" font-weight="bold" font-size="14.00">Legend</text>
<polygon fill="#ffffb3" stroke="transparent" points="2312,-10 2312,-30 2332,-30 2332,-10 2312,-10"/>
<text text-anchor="start" x="2335.63" y="-15.4" font-family="sans-serif" font-size="14.00"> &#160;Declarations</text>
<polygon fill="#8dd3c7" stroke="transparent" points="2425,-10 2425,-30 2445,-30 2445,-10 2425,-10"/>
<text text-anchor="start" x="2448.73" y="-15.4" font-family="sans-serif" font-size="14.00"> &#160;Module</text>
<polygon fill="#80b1d3" stroke="transparent" points="2511,-10 2511,-30 2531,-30 2531,-10 2511,-10"/>
<text text-anchor="start" x="2534.78" y="-15.4" font-family="sans-serif" font-size="14.00"> &#160;Bootstrap</text>
<polygon fill="#fdb462" stroke="transparent" points="2608,-10 2608,-30 2628,-30 2628,-10 2608,-10"/>
<text text-anchor="start" x="2631.67" y="-15.4" font-family="sans-serif" font-size="14.00"> &#160;Providers</text>
<polygon fill="#fb8072" stroke="transparent" points="2704,-10 2704,-30 2724,-30 2724,-10 2704,-10"/>
<text text-anchor="start" x="2727.73" y="-15.4" font-family="sans-serif" font-size="14.00"> &#160;Exports</text>
<g id="clust1" class="cluster">
<title>cluster_AppModule</title>
<polygon fill="none" stroke="black" stroke-dasharray="1,5" points="372,-146 372,-350 2576,-350 2576,-146 372,-146"/>
</g>
<g id="clust2" class="cluster">
<title>cluster_AppModule_declarations</title>
<polygon fill="none" stroke="black" points="1922,-154 1922,-206 2044,-206 2044,-154 1922,-154"/>
</g>
<g id="clust4" class="cluster">
<title>cluster_AppModule_imports</title>
<polygon fill="none" stroke="black" points="2052,-154 2052,-206 2568,-206 2568,-154 2052,-154"/>
</g>
<g id="clust6" class="cluster">
<title>cluster_AppModule_bootstrap</title>
<polygon fill="none" stroke="black" points="1574,-290 1574,-342 1698,-342 1698,-290 1574,-290"/>
</g>
<g id="clust7" class="cluster">
<title>cluster_AppModule_providers</title>
<polygon fill="none" stroke="black" points="380,-154 380,-206 1914,-206 1914,-154 380,-154"/>
</g>
<g id="clust14" class="cluster">
<title>cluster_DocscModule</title>
<polygon fill="none" stroke="black" stroke-dasharray="1,5" points="4772,-70 4772,-206 5084,-206 5084,-70 4772,-70"/>
</g>
<g id="clust15" class="cluster">
<title>cluster_DocscModule_declarations</title>
<polygon fill="none" stroke="black" points="4944,-78 4944,-130 5076,-130 5076,-78 4944,-78"/>
</g>
<g id="clust17" class="cluster">
<title>cluster_DocscModule_imports</title>
<polygon fill="none" stroke="black" points="4780,-78 4780,-130 4936,-130 4936,-78 4780,-78"/>
</g>
<g id="clust27" class="cluster">
<title>cluster_IndexModule</title>
<polygon fill="none" stroke="black" stroke-dasharray="1,5" points="2584,-146 2584,-274 2890,-274 2890,-146 2584,-146"/>
</g>
<g id="clust28" class="cluster">
<title>cluster_IndexModule_declarations</title>
<polygon fill="none" stroke="black" points="2752,-154 2752,-206 2882,-206 2882,-154 2752,-154"/>
</g>
<g id="clust30" class="cluster">
<title>cluster_IndexModule_imports</title>
<polygon fill="none" stroke="black" points="2592,-154 2592,-206 2744,-206 2744,-154 2592,-154"/>
</g>
<g id="clust40" class="cluster">
<title>cluster_NotificationModule</title>
<polygon fill="none" stroke="black" stroke-dasharray="1,5" points="8,-214 8,-282 364,-282 364,-214 8,-214"/>
</g>
<g id="clust41" class="cluster">
<title>cluster_NotificationModule_declarations</title>
<polygon fill="none" stroke="black" points="192,-222 192,-274 356,-274 356,-222 192,-222"/>
</g>
<g id="clust44" class="cluster">
<title>cluster_NotificationModule_exports</title>
<polygon fill="none" stroke="black" points="16,-222 16,-274 184,-274 184,-222 16,-222"/>
</g>
<g id="clust47" class="cluster">
<title>cluster_SharedModule</title>
<polygon fill="none" stroke="black" stroke-dasharray="1,5" points="1922,-70 1922,-138 3092,-138 3092,-70 1922,-70"/>
</g>
<g id="clust48" class="cluster">
<title>cluster_SharedModule_declarations</title>
<polygon fill="none" stroke="black" points="2522,-78 2522,-130 3084,-130 3084,-78 2522,-78"/>
</g>
<g id="clust53" class="cluster">
<title>cluster_SharedModule_imports</title>
<polygon fill="none" stroke="black" points="2354,-78 2354,-130 2514,-130 2514,-78 2354,-78"/>
</g>
<g id="clust54" class="cluster">
<title>cluster_SharedModule_exports</title>
<polygon fill="none" stroke="black" points="1930,-78 1930,-130 2346,-130 2346,-78 1930,-78"/>
</g>
<g id="clust63" class="cluster">
<title>cluster_TestTrainingModule</title>
<polygon fill="none" stroke="black" stroke-dasharray="1,5" points="2898,-146 2898,-274 3579,-274 3579,-146 2898,-146"/>
</g>
<g id="clust64" class="cluster">
<title>cluster_TestTrainingModule_declarations</title>
<polygon fill="none" stroke="black" points="3106,-154 3106,-206 3571,-206 3571,-154 3106,-154"/>
</g>
<g id="clust68" class="cluster">
<title>cluster_TestTrainingModule_imports</title>
<polygon fill="none" stroke="black" points="2906,-154 2906,-206 3098,-206 3098,-154 2906,-154"/>
</g>
<g id="clust78" class="cluster">
<title>cluster_TourModule</title>
<polygon fill="none" stroke="black" stroke-dasharray="1,5" points="3587,-146 3587,-274 4764,-274 4764,-146 3587,-146"/>
</g>
<g id="clust79" class="cluster">
<title>cluster_TourModule_declarations</title>
<polygon fill="none" stroke="black" points="3751,-154 3751,-206 4756,-206 4756,-154 3751,-154"/>
</g>
<g id="clust87" class="cluster">
<title>cluster_TourModule_imports</title>
<polygon fill="none" stroke="black" points="3595,-154 3595,-206 3743,-206 3743,-154 3595,-154"/>
</g>
<!-- AppComponent -->
<g id="node1" class="node">
<title>AppComponent</title>
<polygon fill="#ffffb3" stroke="black" points="2035.94,-198 1930.06,-198 1930.06,-162 2035.94,-162 2035.94,-198"/>
<text text-anchor="middle" x="1983" y="-175.8" font-family="Times,serif" font-size="14.00">AppComponent</text>
</g>
<!-- AppModule -->
<g id="node2" class="node">
<title>AppModule</title>
<polygon fill="#8dd3c7" stroke="black" points="1677.66,-266 1674.66,-270 1653.66,-270 1650.66,-266 1594.34,-266 1594.34,-230 1677.66,-230 1677.66,-266"/>
<text text-anchor="middle" x="1636" y="-243.8" font-family="Times,serif" font-size="14.00">AppModule</text>
</g>
<!-- AppComponent&#45;&gt;AppModule -->
<g id="edge1" class="edge">
<title>AppComponent&#45;&gt;AppModule</title>
<path fill="none" stroke="black" d="M1983,-198.03C1983,-214.4 1983,-236 1983,-236 1983,-236 1687.86,-236 1687.86,-236"/>
<polygon fill="black" stroke="black" points="1687.86,-232.5 1677.86,-236 1687.86,-239.5 1687.86,-232.5"/>
</g>
<!-- AppComponent  -->
<g id="node7" class="node">
<title>AppComponent </title>
<polygon fill="#80b1d3" stroke="black" points="1690.44,-334 1581.56,-334 1581.56,-298 1690.44,-298 1690.44,-334"/>
<text text-anchor="middle" x="1636" y="-311.8" font-family="Times,serif" font-size="14.00">AppComponent </text>
</g>
<!-- AppModule&#45;&gt;AppComponent  -->
<g id="edge6" class="edge">
<title>AppModule&#45;&gt;AppComponent </title>
<path fill="none" stroke="black" stroke-dasharray="1,5" d="M1636,-266.22C1636,-266.22 1636,-287.73 1636,-287.73"/>
<polygon fill="black" stroke="black" points="1632.5,-287.73 1636,-297.73 1639.5,-287.73 1632.5,-287.73"/>
</g>
<!-- !environment -->
<g id="node3" class="node">
<title>!environment</title>
<polygon fill="#8dd3c7" stroke="black" points="2296.92,-198 2293.92,-202 2272.92,-202 2269.92,-198 2205.08,-198 2205.08,-162 2296.92,-162 2296.92,-198"/>
<text text-anchor="middle" x="2251" y="-175.8" font-family="Times,serif" font-size="14.00">!environment</text>
</g>
<!-- !environment&#45;&gt;AppModule -->
<g id="edge2" class="edge">
<title>!environment&#45;&gt;AppModule</title>
<path fill="none" stroke="black" d="M2251,-198.03C2251,-217.58 2251,-246 2251,-246 2251,-246 1687.79,-246 1687.79,-246"/>
<polygon fill="black" stroke="black" points="1687.79,-242.5 1677.79,-246 1687.79,-249.5 1687.79,-242.5"/>
</g>
<!-- AppRoutingModule -->
<g id="node4" class="node">
<title>AppRoutingModule</title>
<polygon fill="#8dd3c7" stroke="black" points="2443.27,-198 2440.27,-202 2419.27,-202 2416.27,-198 2314.73,-198 2314.73,-162 2443.27,-162 2443.27,-198"/>
<text text-anchor="middle" x="2379" y="-175.8" font-family="Times,serif" font-size="14.00">AppRoutingModule</text>
</g>
<!-- AppRoutingModule&#45;&gt;AppModule -->
<g id="edge3" class="edge">
<title>AppRoutingModule&#45;&gt;AppModule</title>
<path fill="none" stroke="black" d="M2379,-198.28C2379,-219.32 2379,-251 2379,-251 2379,-251 1687.81,-251 1687.81,-251"/>
<polygon fill="black" stroke="black" points="1687.81,-247.5 1677.81,-251 1687.81,-254.5 1687.81,-247.5"/>
</g>
<!-- NotificationModule -->
<g id="node5" class="node">
<title>NotificationModule</title>
<polygon fill="#8dd3c7" stroke="black" points="2187.7,-198 2184.7,-202 2163.7,-202 2160.7,-198 2060.3,-198 2060.3,-162 2187.7,-162 2187.7,-198"/>
<text text-anchor="middle" x="2124" y="-175.8" font-family="Times,serif" font-size="14.00">NotificationModule</text>
</g>
<!-- NotificationModule&#45;&gt;AppModule -->
<g id="edge4" class="edge">
<title>NotificationModule&#45;&gt;AppModule</title>
<path fill="none" stroke="black" d="M2155.8,-198.3C2155.8,-216.27 2155.8,-241 2155.8,-241 2155.8,-241 1687.66,-241 1687.66,-241"/>
<polygon fill="black" stroke="black" points="1687.66,-237.5 1677.66,-241 1687.66,-244.5 1687.66,-237.5"/>
</g>
<!-- NotificationComponent  -->
<g id="node22" class="node">
<title>NotificationComponent </title>
<polygon fill="#fb8072" stroke="black" points="176.48,-266 23.52,-266 23.52,-230 176.48,-230 176.48,-266"/>
<text text-anchor="middle" x="100" y="-243.8" font-family="Times,serif" font-size="14.00">NotificationComponent </text>
</g>
<!-- NotificationModule&#45;&gt;NotificationComponent  -->
<g id="edge20" class="edge">
<title>NotificationModule&#45;&gt;NotificationComponent </title>
<path fill="none" stroke="black" stroke-dasharray="5,2" d="M2092.2,-198.17C2092.2,-202.05 2092.2,-205 2092.2,-205 2092.2,-205 100,-205 100,-205 100,-205 100,-219.51 100,-219.51"/>
<polygon fill="black" stroke="black" points="96.5,-219.51 100,-229.51 103.5,-219.51 96.5,-219.51"/>
</g>
<!-- SharedModule -->
<g id="node6" class="node">
<title>SharedModule</title>
<polygon fill="#8dd3c7" stroke="black" points="2560.42,-198 2557.42,-202 2536.42,-202 2533.42,-198 2461.58,-198 2461.58,-162 2560.42,-162 2560.42,-198"/>
<text text-anchor="middle" x="2511" y="-175.8" font-family="Times,serif" font-size="14.00">SharedModule</text>
</g>
<!-- SharedModule&#45;&gt;AppModule -->
<g id="edge5" class="edge">
<title>SharedModule&#45;&gt;AppModule</title>
<path fill="none" stroke="black" d="M2520.84,-198.01C2520.84,-220.49 2520.84,-256 2520.84,-256 2520.84,-256 1687.79,-256 1687.79,-256"/>
<polygon fill="black" stroke="black" points="1687.79,-252.5 1677.79,-256 1687.79,-259.5 1687.79,-252.5"/>
</g>
<!-- IndexModule -->
<g id="node19" class="node">
<title>IndexModule</title>
<polygon fill="#8dd3c7" stroke="black" points="2713.93,-266 2710.93,-270 2689.93,-270 2686.93,-266 2622.07,-266 2622.07,-230 2713.93,-230 2713.93,-266"/>
<text text-anchor="middle" x="2668" y="-243.8" font-family="Times,serif" font-size="14.00">IndexModule</text>
</g>
<!-- SharedModule&#45;&gt;IndexModule -->
<g id="edge18" class="edge">
<title>SharedModule&#45;&gt;IndexModule</title>
<path fill="none" stroke="black" d="M2540.53,-198.38C2540.53,-222.28 2540.53,-261 2540.53,-261 2540.53,-261 2611.98,-261 2611.98,-261"/>
<polygon fill="black" stroke="black" points="2611.98,-264.5 2621.98,-261 2611.98,-257.5 2611.98,-264.5"/>
</g>
<!-- FooterComponent  -->
<g id="node28" class="node">
<title>FooterComponent </title>
<polygon fill="#fb8072" stroke="black" points="2059.88,-122 1938.12,-122 1938.12,-86 2059.88,-86 2059.88,-122"/>
<text text-anchor="middle" x="1999" y="-99.8" font-family="Times,serif" font-size="14.00">FooterComponent </text>
</g>
<!-- SharedModule&#45;&gt;FooterComponent  -->
<g id="edge26" class="edge">
<title>SharedModule&#45;&gt;FooterComponent </title>
<path fill="none" stroke="black" stroke-dasharray="5,2" d="M2470.59,-161.87C2470.59,-151.29 2470.59,-140 2470.59,-140 2470.59,-140 2047.7,-140 2047.7,-140 2047.7,-140 2047.7,-132.42 2047.7,-132.42"/>
<polygon fill="black" stroke="black" points="2051.21,-132.42 2047.7,-122.42 2044.21,-132.42 2051.21,-132.42"/>
</g>
<!-- NavbarComponent  -->
<g id="node29" class="node">
<title>NavbarComponent </title>
<polygon fill="#fb8072" stroke="black" points="2338.03,-122 2211.97,-122 2211.97,-86 2338.03,-86 2338.03,-122"/>
<text text-anchor="middle" x="2275" y="-99.8" font-family="Times,serif" font-size="14.00">NavbarComponent </text>
</g>
<!-- SharedModule&#45;&gt;NavbarComponent  -->
<g id="edge27" class="edge">
<title>SharedModule&#45;&gt;NavbarComponent </title>
<path fill="none" stroke="black" stroke-dasharray="5,2" d="M2488.18,-161.81C2488.18,-146.82 2488.18,-128 2488.18,-128 2488.18,-128 2326.31,-128 2326.31,-128 2326.31,-128 2326.31,-127.42 2326.31,-127.42"/>
<polygon fill="black" stroke="black" points="2329.81,-132.19 2326.31,-122.19 2322.81,-132.19 2329.81,-132.19"/>
</g>
<!-- TableComponent  -->
<g id="node30" class="node">
<title>TableComponent </title>
<polygon fill="#fb8072" stroke="black" points="2194.21,-122 2077.79,-122 2077.79,-86 2194.21,-86 2194.21,-122"/>
<text text-anchor="middle" x="2136" y="-99.8" font-family="Times,serif" font-size="14.00">TableComponent </text>
</g>
<!-- SharedModule&#45;&gt;TableComponent  -->
<g id="edge28" class="edge">
<title>SharedModule&#45;&gt;TableComponent </title>
<path fill="none" stroke="black" stroke-dasharray="5,2" d="M2479.38,-161.82C2479.38,-148.96 2479.38,-134 2479.38,-134 2479.38,-134 2132.62,-134 2132.62,-134 2132.62,-134 2132.62,-132.14 2132.62,-132.14"/>
<polygon fill="black" stroke="black" points="2136.12,-132.14 2132.62,-122.14 2129.12,-132.14 2136.12,-132.14"/>
</g>
<!-- TestTrainingModule -->
<g id="node34" class="node">
<title>TestTrainingModule</title>
<polygon fill="#8dd3c7" stroke="black" points="3256.86,-266 3253.86,-270 3232.86,-270 3229.86,-266 3125.14,-266 3125.14,-230 3256.86,-230 3256.86,-266"/>
<text text-anchor="middle" x="3191" y="-243.8" font-family="Times,serif" font-size="14.00">TestTrainingModule</text>
</g>
<!-- SharedModule&#45;&gt;TestTrainingModule -->
<g id="edge32" class="edge">
<title>SharedModule&#45;&gt;TestTrainingModule</title>
<path fill="none" stroke="black" d="M2481.47,-198.15C2481.47,-210.27 2481.47,-224 2481.47,-224 2481.47,-224 3169.02,-224 3169.02,-224 3169.02,-224 3169.02,-224.58 3169.02,-224.58"/>
<polygon fill="black" stroke="black" points="3165.52,-219.81 3169.02,-229.81 3172.52,-219.81 3165.52,-219.81"/>
</g>
<!-- TourModule -->
<g id="node43" class="node">
<title>TourModule</title>
<polygon fill="#8dd3c7" stroke="black" points="4193.26,-266 4190.26,-270 4169.26,-270 4166.26,-266 4106.74,-266 4106.74,-230 4193.26,-230 4193.26,-266"/>
<text text-anchor="middle" x="4150" y="-243.8" font-family="Times,serif" font-size="14.00">TourModule</text>
</g>
<!-- SharedModule&#45;&gt;TourModule -->
<g id="edge41" class="edge">
<title>SharedModule&#45;&gt;TourModule</title>
<path fill="none" stroke="black" d="M2501.16,-198.11C2501.16,-207.9 2501.16,-218 2501.16,-218 2501.16,-218 4135.54,-218 4135.54,-218 4135.54,-218 4135.54,-219.86 4135.54,-219.86"/>
<polygon fill="black" stroke="black" points="4132.04,-219.86 4135.54,-229.86 4139.04,-219.86 4132.04,-219.86"/>
</g>
<!-- AuthService -->
<g id="node8" class="node">
<title>AuthService</title>
<ellipse fill="#fdb462" stroke="black" cx="729" cy="-180" rx="59.11" ry="18"/>
<text text-anchor="middle" x="729" y="-175.8" font-family="Times,serif" font-size="14.00">AuthService</text>
</g>
<!-- AuthService&#45;&gt;AppModule -->
<g id="edge7" class="edge">
<title>AuthService&#45;&gt;AppModule</title>
<path fill="none" stroke="black" d="M729,-198.29C729,-220.21 729,-254 729,-254 729,-254 1584.07,-254 1584.07,-254"/>
<polygon fill="black" stroke="black" points="1584.07,-257.5 1594.07,-254 1584.07,-250.5 1584.07,-257.5"/>
</g>
<!-- HttpErrorsResponseInterceptor -->
<g id="node9" class="node">
<title>HttpErrorsResponseInterceptor</title>
<ellipse fill="#fdb462" stroke="black" cx="520" cy="-180" rx="131.9" ry="18"/>
<text text-anchor="middle" x="520" y="-175.8" font-family="Times,serif" font-size="14.00">HttpErrorsResponseInterceptor</text>
</g>
<!-- HttpErrorsResponseInterceptor&#45;&gt;AppModule -->
<g id="edge8" class="edge">
<title>HttpErrorsResponseInterceptor&#45;&gt;AppModule</title>
<path fill="none" stroke="black" d="M520,-198.15C520,-221.76 520,-260 520,-260 520,-260 1584.29,-260 1584.29,-260"/>
<polygon fill="black" stroke="black" points="1584.29,-263.5 1594.29,-260 1584.29,-256.5 1584.29,-263.5"/>
</g>
<!-- HttpMethodOverrideInterceptor -->
<g id="node10" class="node">
<title>HttpMethodOverrideInterceptor</title>
<ellipse fill="#fdb462" stroke="black" cx="1771" cy="-180" rx="134.83" ry="18"/>
<text text-anchor="middle" x="1771" y="-175.8" font-family="Times,serif" font-size="14.00">HttpMethodOverrideInterceptor</text>
</g>
<!-- HttpMethodOverrideInterceptor&#45;&gt;AppModule -->
<g id="edge9" class="edge">
<title>HttpMethodOverrideInterceptor&#45;&gt;AppModule</title>
<path fill="none" stroke="black" d="M1656.96,-189.74C1656.96,-189.74 1656.96,-219.84 1656.96,-219.84"/>
<polygon fill="black" stroke="black" points="1653.46,-219.84 1656.96,-229.84 1660.46,-219.84 1653.46,-219.84"/>
</g>
<!-- HttpSwitchUserInterceptor -->
<g id="node11" class="node">
<title>HttpSwitchUserInterceptor</title>
<ellipse fill="#fdb462" stroke="black" cx="1502" cy="-180" rx="115.72" ry="18"/>
<text text-anchor="middle" x="1502" y="-175.8" font-family="Times,serif" font-size="14.00">HttpSwitchUserInterceptor</text>
</g>
<!-- HttpSwitchUserInterceptor&#45;&gt;AppModule -->
<g id="edge10" class="edge">
<title>HttpSwitchUserInterceptor&#45;&gt;AppModule</title>
<path fill="none" stroke="black" d="M1605.89,-188.07C1605.89,-188.07 1605.89,-219.72 1605.89,-219.72"/>
<polygon fill="black" stroke="black" points="1602.39,-219.72 1605.89,-229.72 1609.39,-219.72 1602.39,-219.72"/>
</g>
<!-- SharingdataService -->
<g id="node12" class="node">
<title>SharingdataService</title>
<ellipse fill="#fdb462" stroke="black" cx="1282" cy="-180" rx="86.23" ry="18"/>
<text text-anchor="middle" x="1282" y="-175.8" font-family="Times,serif" font-size="14.00">SharingdataService</text>
</g>
<!-- SharingdataService&#45;&gt;AppModule -->
<g id="edge11" class="edge">
<title>SharingdataService&#45;&gt;AppModule</title>
<path fill="none" stroke="black" d="M1282,-198.03C1282,-214.4 1282,-236 1282,-236 1282,-236 1584,-236 1584,-236"/>
<polygon fill="black" stroke="black" points="1584,-239.5 1594,-236 1584,-232.5 1584,-239.5"/>
</g>
<!-- SynApiService -->
<g id="node13" class="node">
<title>SynApiService</title>
<ellipse fill="#fdb462" stroke="black" cx="1108" cy="-180" rx="69.5" ry="18"/>
<text text-anchor="middle" x="1108" y="-175.8" font-family="Times,serif" font-size="14.00">SynApiService</text>
</g>
<!-- SynApiService&#45;&gt;AppModule -->
<g id="edge12" class="edge">
<title>SynApiService&#45;&gt;AppModule</title>
<path fill="none" stroke="black" d="M1108,-198.27C1108,-216.56 1108,-242 1108,-242 1108,-242 1584.13,-242 1584.13,-242"/>
<polygon fill="black" stroke="black" points="1584.13,-245.5 1594.13,-242 1584.13,-238.5 1584.13,-245.5"/>
</g>
<!-- TokenInterceptorService -->
<g id="node14" class="node">
<title>TokenInterceptorService</title>
<ellipse fill="#fdb462" stroke="black" cx="913" cy="-180" rx="107.04" ry="18"/>
<text text-anchor="middle" x="913" y="-175.8" font-family="Times,serif" font-size="14.00">TokenInterceptorService</text>
</g>
<!-- TokenInterceptorService&#45;&gt;AppModule -->
<g id="edge13" class="edge">
<title>TokenInterceptorService&#45;&gt;AppModule</title>
<path fill="none" stroke="black" d="M913,-198.22C913,-218.37 913,-248 913,-248 913,-248 1584.27,-248 1584.27,-248"/>
<polygon fill="black" stroke="black" points="1584.27,-251.5 1594.27,-248 1584.27,-244.5 1584.27,-251.5"/>
</g>
<!-- DocscComponent -->
<g id="node15" class="node">
<title>DocscComponent</title>
<polygon fill="#ffffb3" stroke="black" points="5068.31,-122 4951.69,-122 4951.69,-86 5068.31,-86 5068.31,-122"/>
<text text-anchor="middle" x="5010" y="-99.8" font-family="Times,serif" font-size="14.00">DocscComponent</text>
</g>
<!-- DocscModule -->
<g id="node16" class="node">
<title>DocscModule</title>
<polygon fill="#8dd3c7" stroke="black" points="4981.03,-198 4978.03,-202 4957.03,-202 4954.03,-198 4886.97,-198 4886.97,-162 4981.03,-162 4981.03,-198"/>
<text text-anchor="middle" x="4934" y="-175.8" font-family="Times,serif" font-size="14.00">DocscModule</text>
</g>
<!-- DocscComponent&#45;&gt;DocscModule -->
<g id="edge14" class="edge">
<title>DocscComponent&#45;&gt;DocscModule</title>
<path fill="none" stroke="black" d="M4966.55,-122.01C4966.55,-122.01 4966.55,-151.85 4966.55,-151.85"/>
<polygon fill="black" stroke="black" points="4963.05,-151.85 4966.55,-161.85 4970.05,-151.85 4963.05,-151.85"/>
</g>
<!-- DocscRoutingModule -->
<g id="node17" class="node">
<title>DocscRoutingModule</title>
<polygon fill="#8dd3c7" stroke="black" points="4927.65,-122 4924.65,-126 4903.65,-126 4900.65,-122 4788.35,-122 4788.35,-86 4927.65,-86 4927.65,-122"/>
<text text-anchor="middle" x="4858" y="-99.8" font-family="Times,serif" font-size="14.00">DocscRoutingModule</text>
</g>
<!-- DocscRoutingModule&#45;&gt;DocscModule -->
<g id="edge15" class="edge">
<title>DocscRoutingModule&#45;&gt;DocscModule</title>
<path fill="none" stroke="black" d="M4907.28,-122.01C4907.28,-122.01 4907.28,-151.85 4907.28,-151.85"/>
<polygon fill="black" stroke="black" points="4903.78,-151.85 4907.28,-161.85 4910.78,-151.85 4903.78,-151.85"/>
</g>
<!-- IndexComponent -->
<g id="node18" class="node">
<title>IndexComponent</title>
<polygon fill="#ffffb3" stroke="black" points="2873.71,-198 2760.29,-198 2760.29,-162 2873.71,-162 2873.71,-198"/>
<text text-anchor="middle" x="2817" y="-175.8" font-family="Times,serif" font-size="14.00">IndexComponent</text>
</g>
<!-- IndexComponent&#45;&gt;IndexModule -->
<g id="edge16" class="edge">
<title>IndexComponent&#45;&gt;IndexModule</title>
<path fill="none" stroke="black" d="M2817,-198.29C2817,-220.21 2817,-254 2817,-254 2817,-254 2723.92,-254 2723.92,-254"/>
<polygon fill="black" stroke="black" points="2723.92,-250.5 2713.92,-254 2723.92,-257.5 2723.92,-250.5"/>
</g>
<!-- IndexRoutingModule -->
<g id="node20" class="node">
<title>IndexRoutingModule</title>
<polygon fill="#8dd3c7" stroke="black" points="2736.04,-198 2733.04,-202 2712.04,-202 2709.04,-198 2599.96,-198 2599.96,-162 2736.04,-162 2736.04,-198"/>
<text text-anchor="middle" x="2668" y="-175.8" font-family="Times,serif" font-size="14.00">IndexRoutingModule</text>
</g>
<!-- IndexRoutingModule&#45;&gt;IndexModule -->
<g id="edge17" class="edge">
<title>IndexRoutingModule&#45;&gt;IndexModule</title>
<path fill="none" stroke="black" d="M2668,-198.22C2668,-198.22 2668,-219.73 2668,-219.73"/>
<polygon fill="black" stroke="black" points="2664.5,-219.73 2668,-229.73 2671.5,-219.73 2664.5,-219.73"/>
</g>
<!-- NotificationComponent -->
<g id="node21" class="node">
<title>NotificationComponent</title>
<polygon fill="#ffffb3" stroke="black" points="348.48,-266 199.52,-266 199.52,-230 348.48,-230 348.48,-266"/>
<text text-anchor="middle" x="274" y="-243.8" font-family="Times,serif" font-size="14.00">NotificationComponent</text>
</g>
<!-- NotificationComponent&#45;&gt;NotificationModule -->
<g id="edge19" class="edge">
<title>NotificationComponent&#45;&gt;NotificationModule</title>
<path fill="none" stroke="black" d="M274,-229.93C274,-220.54 274,-211 274,-211 274,-211 2124,-211 2124,-211 2124,-211 2124,-208.03 2124,-208.03"/>
<polygon fill="black" stroke="black" points="2127.5,-208.03 2124,-198.03 2120.5,-208.03 2127.5,-208.03"/>
</g>
<!-- FooterComponent -->
<g id="node23" class="node">
<title>FooterComponent</title>
<polygon fill="#ffffb3" stroke="black" points="3075.88,-122 2958.12,-122 2958.12,-86 3075.88,-86 3075.88,-122"/>
<text text-anchor="middle" x="3017" y="-99.8" font-family="Times,serif" font-size="14.00">FooterComponent</text>
</g>
<!-- FooterComponent&#45;&gt;SharedModule -->
<g id="edge21" class="edge">
<title>FooterComponent&#45;&gt;SharedModule</title>
<path fill="none" stroke="black" d="M3017,-122.24C3017,-137.57 3017,-157 3017,-157 3017,-157 2554.25,-157 2554.25,-157 2554.25,-157 2554.25,-157.49 2554.25,-157.49"/>
<polygon fill="black" stroke="black" points="2550.75,-151.88 2554.25,-161.88 2557.75,-151.88 2550.75,-151.88"/>
</g>
<!-- NavbarComponent -->
<g id="node24" class="node">
<title>NavbarComponent</title>
<polygon fill="#ffffb3" stroke="black" points="2940.03,-122 2817.97,-122 2817.97,-86 2940.03,-86 2940.03,-122"/>
<text text-anchor="middle" x="2879" y="-99.8" font-family="Times,serif" font-size="14.00">NavbarComponent</text>
</g>
<!-- NavbarComponent&#45;&gt;SharedModule -->
<g id="edge22" class="edge">
<title>NavbarComponent&#45;&gt;SharedModule</title>
<path fill="none" stroke="black" d="M2845.67,-122.04C2845.67,-135.29 2845.67,-151 2845.67,-151 2845.67,-151 2548.29,-151 2548.29,-151 2548.29,-151 2548.29,-152.08 2548.29,-152.08"/>
<polygon fill="black" stroke="black" points="2544.79,-151.8 2548.29,-161.8 2551.79,-151.8 2544.79,-151.8"/>
</g>
<!-- NotFoundComponent -->
<g id="node25" class="node">
<title>NotFoundComponent</title>
<polygon fill="#ffffb3" stroke="black" points="2800.11,-122 2661.89,-122 2661.89,-86 2800.11,-86 2800.11,-122"/>
<text text-anchor="middle" x="2731" y="-99.8" font-family="Times,serif" font-size="14.00">NotFoundComponent</text>
</g>
<!-- NotFoundComponent&#45;&gt;SharedModule -->
<g id="edge23" class="edge">
<title>NotFoundComponent&#45;&gt;SharedModule</title>
<path fill="none" stroke="black" d="M2699.11,-122.1C2699.11,-133.09 2699.11,-145 2699.11,-145 2699.11,-145 2542.32,-145 2542.32,-145 2542.32,-145 2542.32,-151.68 2542.32,-151.68"/>
<polygon fill="black" stroke="black" points="2538.82,-151.68 2542.32,-161.68 2545.82,-151.68 2538.82,-151.68"/>
</g>
<!-- TableComponent -->
<g id="node26" class="node">
<title>TableComponent</title>
<polygon fill="#ffffb3" stroke="black" points="2643.7,-122 2530.3,-122 2530.3,-86 2643.7,-86 2643.7,-122"/>
<text text-anchor="middle" x="2587" y="-99.8" font-family="Times,serif" font-size="14.00">TableComponent</text>
</g>
<!-- TableComponent&#45;&gt;SharedModule -->
<g id="edge24" class="edge">
<title>TableComponent&#45;&gt;SharedModule</title>
<path fill="none" stroke="black" d="M2536.36,-122.01C2536.36,-122.01 2536.36,-151.85 2536.36,-151.85"/>
<polygon fill="black" stroke="black" points="2532.86,-151.85 2536.36,-161.85 2539.86,-151.85 2532.86,-151.85"/>
</g>
<!-- SharedRoutingModule -->
<g id="node27" class="node">
<title>SharedRoutingModule</title>
<polygon fill="#8dd3c7" stroke="black" points="2505.54,-122 2502.54,-126 2481.54,-126 2478.54,-122 2362.46,-122 2362.46,-86 2505.54,-86 2505.54,-122"/>
<text text-anchor="middle" x="2434" y="-99.8" font-family="Times,serif" font-size="14.00">SharedRoutingModule</text>
</g>
<!-- SharedRoutingModule&#45;&gt;SharedModule -->
<g id="edge25" class="edge">
<title>SharedRoutingModule&#45;&gt;SharedModule</title>
<path fill="none" stroke="black" d="M2496.97,-122.01C2496.97,-122.01 2496.97,-151.85 2496.97,-151.85"/>
<polygon fill="black" stroke="black" points="2493.47,-151.85 2496.97,-161.85 2500.47,-151.85 2493.47,-151.85"/>
</g>
<!-- DisplayComponent -->
<g id="node31" class="node">
<title>DisplayComponent</title>
<polygon fill="#ffffb3" stroke="black" points="3563.38,-198 3438.62,-198 3438.62,-162 3563.38,-162 3563.38,-198"/>
<text text-anchor="middle" x="3501" y="-175.8" font-family="Times,serif" font-size="14.00">DisplayComponent</text>
</g>
<!-- DisplayComponent&#45;&gt;TestTrainingModule -->
<g id="edge29" class="edge">
<title>DisplayComponent&#45;&gt;TestTrainingModule</title>
<path fill="none" stroke="black" d="M3501,-198.27C3501,-216.56 3501,-242 3501,-242 3501,-242 3267.12,-242 3267.12,-242"/>
<polygon fill="black" stroke="black" points="3267.12,-238.5 3257.12,-242 3267.12,-245.5 3267.12,-238.5"/>
</g>
<!-- InputTestComponent -->
<g id="node32" class="node">
<title>InputTestComponent</title>
<polygon fill="#ffffb3" stroke="black" points="3420.49,-198 3285.51,-198 3285.51,-162 3420.49,-162 3420.49,-198"/>
<text text-anchor="middle" x="3353" y="-175.8" font-family="Times,serif" font-size="14.00">InputTestComponent</text>
</g>
<!-- InputTestComponent&#45;&gt;TestTrainingModule -->
<g id="edge30" class="edge">
<title>InputTestComponent&#45;&gt;TestTrainingModule</title>
<path fill="none" stroke="black" d="M3353,-198.03C3353,-214.4 3353,-236 3353,-236 3353,-236 3266.89,-236 3266.89,-236"/>
<polygon fill="black" stroke="black" points="3266.89,-232.5 3256.89,-236 3266.89,-239.5 3266.89,-232.5"/>
</g>
<!-- TestTrainingComponent -->
<g id="node33" class="node">
<title>TestTrainingComponent</title>
<polygon fill="#ffffb3" stroke="black" points="3267.64,-198 3114.36,-198 3114.36,-162 3267.64,-162 3267.64,-198"/>
<text text-anchor="middle" x="3191" y="-175.8" font-family="Times,serif" font-size="14.00">TestTrainingComponent</text>
</g>
<!-- TestTrainingComponent&#45;&gt;TestTrainingModule -->
<g id="edge31" class="edge">
<title>TestTrainingComponent&#45;&gt;TestTrainingModule</title>
<path fill="none" stroke="black" d="M3212.98,-198.22C3212.98,-198.22 3212.98,-219.73 3212.98,-219.73"/>
<polygon fill="black" stroke="black" points="3209.48,-219.73 3212.98,-229.73 3216.48,-219.73 3209.48,-219.73"/>
</g>
<!-- TestTrainingRoutingModule -->
<g id="node35" class="node">
<title>TestTrainingRoutingModule</title>
<polygon fill="#8dd3c7" stroke="black" points="3090.48,-198 3087.48,-202 3066.48,-202 3063.48,-198 2913.52,-198 2913.52,-162 3090.48,-162 3090.48,-198"/>
<text text-anchor="middle" x="3002" y="-175.8" font-family="Times,serif" font-size="14.00">TestTrainingRoutingModule</text>
</g>
<!-- TestTrainingRoutingModule&#45;&gt;TestTrainingModule -->
<g id="edge33" class="edge">
<title>TestTrainingRoutingModule&#45;&gt;TestTrainingModule</title>
<path fill="none" stroke="black" d="M3002,-198.27C3002,-216.56 3002,-242 3002,-242 3002,-242 3114.9,-242 3114.9,-242"/>
<polygon fill="black" stroke="black" points="3114.9,-245.5 3124.9,-242 3114.9,-238.5 3114.9,-245.5"/>
</g>
<!-- CodebookComponent -->
<g id="node36" class="node">
<title>CodebookComponent</title>
<polygon fill="#ffffb3" stroke="black" points="4061.38,-198 3922.62,-198 3922.62,-162 4061.38,-162 4061.38,-198"/>
<text text-anchor="middle" x="3992" y="-175.8" font-family="Times,serif" font-size="14.00">CodebookComponent</text>
</g>
<!-- CodebookComponent&#45;&gt;TourModule -->
<g id="edge34" class="edge">
<title>CodebookComponent&#45;&gt;TourModule</title>
<path fill="none" stroke="black" d="M3992,-198.22C3992,-218.37 3992,-248 3992,-248 3992,-248 4096.41,-248 4096.41,-248"/>
<polygon fill="black" stroke="black" points="4096.41,-251.5 4106.41,-248 4096.41,-244.5 4096.41,-251.5"/>
</g>
<!-- EmbeddingComponent -->
<g id="node37" class="node">
<title>EmbeddingComponent</title>
<polygon fill="#ffffb3" stroke="black" points="3904.88,-198 3759.12,-198 3759.12,-162 3904.88,-162 3904.88,-198"/>
<text text-anchor="middle" x="3832" y="-175.8" font-family="Times,serif" font-size="14.00">EmbeddingComponent</text>
</g>
<!-- EmbeddingComponent&#45;&gt;TourModule -->
<g id="edge35" class="edge">
<title>EmbeddingComponent&#45;&gt;TourModule</title>
<path fill="none" stroke="black" d="M3832,-198.29C3832,-220.21 3832,-254 3832,-254 3832,-254 4096.45,-254 4096.45,-254"/>
<polygon fill="black" stroke="black" points="4096.45,-257.5 4106.45,-254 4096.45,-250.5 4096.45,-257.5"/>
</g>
<!-- FinalStepComponent -->
<g id="node38" class="node">
<title>FinalStepComponent</title>
<polygon fill="#ffffb3" stroke="black" points="4748.5,-198 4613.5,-198 4613.5,-162 4748.5,-162 4748.5,-198"/>
<text text-anchor="middle" x="4681" y="-175.8" font-family="Times,serif" font-size="14.00">FinalStepComponent</text>
</g>
<!-- FinalStepComponent&#45;&gt;TourModule -->
<g id="edge36" class="edge">
<title>FinalStepComponent&#45;&gt;TourModule</title>
<path fill="none" stroke="black" d="M4681,-198.32C4681,-221.66 4681,-259 4681,-259 4681,-259 4203.45,-259 4203.45,-259"/>
<polygon fill="black" stroke="black" points="4203.45,-255.5 4193.45,-259 4203.45,-262.5 4203.45,-255.5"/>
</g>
<!-- InputComponent -->
<g id="node39" class="node">
<title>InputComponent</title>
<polygon fill="#ffffb3" stroke="black" points="4595.38,-198 4484.62,-198 4484.62,-162 4595.38,-162 4595.38,-198"/>
<text text-anchor="middle" x="4540" y="-175.8" font-family="Times,serif" font-size="14.00">InputComponent</text>
</g>
<!-- InputComponent&#45;&gt;TourModule -->
<g id="edge37" class="edge">
<title>InputComponent&#45;&gt;TourModule</title>
<path fill="none" stroke="black" d="M4540,-198.17C4540,-219.5 4540,-252 4540,-252 4540,-252 4203.6,-252 4203.6,-252"/>
<polygon fill="black" stroke="black" points="4203.6,-248.5 4193.6,-252 4203.6,-255.5 4203.6,-248.5"/>
</g>
<!-- NlpComponent -->
<g id="node40" class="node">
<title>NlpComponent</title>
<polygon fill="#ffffb3" stroke="black" points="4466.33,-198 4363.67,-198 4363.67,-162 4466.33,-162 4466.33,-198"/>
<text text-anchor="middle" x="4415" y="-175.8" font-family="Times,serif" font-size="14.00">NlpComponent</text>
</g>
<!-- NlpComponent&#45;&gt;TourModule -->
<g id="edge38" class="edge">
<title>NlpComponent&#45;&gt;TourModule</title>
<path fill="none" stroke="black" d="M4415,-198.11C4415,-217.34 4415,-245 4415,-245 4415,-245 4203.46,-245 4203.46,-245"/>
<polygon fill="black" stroke="black" points="4203.46,-241.5 4193.46,-245 4203.46,-248.5 4203.46,-241.5"/>
</g>
<!-- TourComponent -->
<g id="node41" class="node">
<title>TourComponent</title>
<polygon fill="#ffffb3" stroke="black" points="4346.05,-198 4237.95,-198 4237.95,-162 4346.05,-162 4346.05,-198"/>
<text text-anchor="middle" x="4292" y="-175.8" font-family="Times,serif" font-size="14.00">TourComponent</text>
</g>
<!-- TourComponent&#45;&gt;TourModule -->
<g id="edge39" class="edge">
<title>TourComponent&#45;&gt;TourModule</title>
<path fill="none" stroke="black" d="M4292,-198.03C4292,-215.06 4292,-238 4292,-238 4292,-238 4203.38,-238 4203.38,-238"/>
<polygon fill="black" stroke="black" points="4203.38,-234.5 4193.38,-238 4203.38,-241.5 4203.38,-234.5"/>
</g>
<!-- VectorizerComponent -->
<g id="node42" class="node">
<title>VectorizerComponent</title>
<polygon fill="#ffffb3" stroke="black" points="4220.4,-198 4079.6,-198 4079.6,-162 4220.4,-162 4220.4,-198"/>
<text text-anchor="middle" x="4150" y="-175.8" font-family="Times,serif" font-size="14.00">VectorizerComponent</text>
</g>
<!-- VectorizerComponent&#45;&gt;TourModule -->
<g id="edge40" class="edge">
<title>VectorizerComponent&#45;&gt;TourModule</title>
<path fill="none" stroke="black" d="M4164.46,-198.22C4164.46,-198.22 4164.46,-219.73 4164.46,-219.73"/>
<polygon fill="black" stroke="black" points="4160.96,-219.73 4164.46,-229.73 4167.96,-219.73 4160.96,-219.73"/>
</g>
<!-- TourRoutingModule -->
<g id="node44" class="node">
<title>TourRoutingModule</title>
<polygon fill="#8dd3c7" stroke="black" points="3734.88,-198 3731.88,-202 3710.88,-202 3707.88,-198 3603.12,-198 3603.12,-162 3734.88,-162 3734.88,-198"/>
<text text-anchor="middle" x="3669" y="-175.8" font-family="Times,serif" font-size="14.00">TourRoutingModule</text>
</g>
<!-- TourRoutingModule&#45;&gt;TourModule -->
<g id="edge42" class="edge">
<title>TourRoutingModule&#45;&gt;TourModule</title>
<path fill="none" stroke="black" d="M3669,-198.15C3669,-221.76 3669,-260 3669,-260 3669,-260 4096.47,-260 4096.47,-260"/>
<polygon fill="black" stroke="black" points="4096.47,-263.5 4106.47,-260 4096.47,-256.5 4096.47,-263.5"/>
</g>
</g>
</svg>
