<?xml version="1.0" encoding="UTF-8" standalone="no"?>
<!DOCTYPE svg PUBLIC "-//W3C//DTD SVG 1.1//EN"
 "http://www.w3.org/Graphics/SVG/1.1/DTD/svg11.dtd">
<!-- Generated by graphviz version 2.44.1 (20200629.0846)
 -->
<!-- Title: dependencies Pages: 1 -->
<svg width="2228pt" height="284pt"
 viewBox="0.00 0.00 2228.00 284.00" xmlns="http://www.w3.org/2000/svg" xmlns:xlink="http://www.w3.org/1999/xlink">
<g id="graph0" class="graph" transform="scale(1 1) rotate(0) translate(4 280)">
<title>dependencies</title>
<polygon fill="white" stroke="transparent" points="-4,4 -4,-280 2224,-280 2224,4 -4,4"/>
<text text-anchor="start" x="1089.01" y="-42.4" font-family="sans-serif" font-weight="bold" font-size="14.00">Legend</text>
<polygon fill="#ffffb3" stroke="transparent" points="876,-10 876,-30 896,-30 896,-10 876,-10"/>
<text text-anchor="start" x="899.63" y="-15.4" font-family="sans-serif" font-size="14.00"> &#160;Declarations</text>
<polygon fill="#8dd3c7" stroke="transparent" points="989,-10 989,-30 1009,-30 1009,-10 989,-10"/>
<text text-anchor="start" x="1012.73" y="-15.4" font-family="sans-serif" font-size="14.00"> &#160;Module</text>
<polygon fill="#80b1d3" stroke="transparent" points="1075,-10 1075,-30 1095,-30 1095,-10 1075,-10"/>
<text text-anchor="start" x="1098.78" y="-15.4" font-family="sans-serif" font-size="14.00"> &#160;Bootstrap</text>
<polygon fill="#fdb462" stroke="transparent" points="1172,-10 1172,-30 1192,-30 1192,-10 1172,-10"/>
<text text-anchor="start" x="1195.67" y="-15.4" font-family="sans-serif" font-size="14.00"> &#160;Providers</text>
<polygon fill="#fb8072" stroke="transparent" points="1268,-10 1268,-30 1288,-30 1288,-10 1268,-10"/>
<text text-anchor="start" x="1291.73" y="-15.4" font-family="sans-serif" font-size="14.00"> &#160;Exports</text>
<g id="clust1" class="cluster">
<title>cluster_AppModule</title>
<polygon fill="none" stroke="black" stroke-dasharray="1,5" points="8,-70 8,-268 2212,-268 2212,-70 8,-70"/>
</g>
<g id="clust7" class="cluster">
<title>cluster_AppModule_providers</title>
<polygon fill="none" stroke="black" points="670,-78 670,-130 2204,-130 2204,-78 670,-78"/>
</g>
<g id="clust4" class="cluster">
<title>cluster_AppModule_imports</title>
<polygon fill="none" stroke="black" points="146,-78 146,-130 662,-130 662,-78 146,-78"/>
</g>
<g id="clust2" class="cluster">
<title>cluster_AppModule_declarations</title>
<polygon fill="none" stroke="black" points="16,-78 16,-130 138,-130 138,-78 16,-78"/>
</g>
<g id="clust6" class="cluster">
<title>cluster_AppModule_bootstrap</title>
<polygon fill="none" stroke="black" points="820,-208 820,-260 944,-260 944,-208 820,-208"/>
</g>
<!-- AppComponent -->
<g id="node1" class="node">
<title>AppComponent</title>
<polygon fill="#ffffb3" stroke="black" points="129.94,-122 24.06,-122 24.06,-86 129.94,-86 129.94,-122"/>
<text text-anchor="middle" x="77" y="-99.8" font-family="Times,serif" font-size="14.00">AppComponent</text>
</g>
<!-- AppModule -->
<g id="node2" class="node">
<title>AppModule</title>
<polygon fill="#8dd3c7" stroke="black" points="923.66,-187 920.66,-191 899.66,-191 896.66,-187 840.34,-187 840.34,-151 923.66,-151 923.66,-187"/>
<text text-anchor="middle" x="882" y="-164.8" font-family="Times,serif" font-size="14.00">AppModule</text>
</g>
<!-- AppComponent&#45;&gt;AppModule -->
<g id="edge1" class="edge">
<title>AppComponent&#45;&gt;AppModule</title>
<path fill="none" stroke="black" d="M77,-122.25C77,-145.02 77,-181 77,-181 77,-181 830.13,-181 830.13,-181"/>
<polygon fill="black" stroke="black" points="830.13,-184.5 840.13,-181 830.13,-177.5 830.13,-184.5"/>
</g>
<!-- AppComponent  -->
<g id="node7" class="node">
<title>AppComponent </title>
<polygon fill="#80b1d3" stroke="black" points="936.44,-252 827.56,-252 827.56,-216 936.44,-216 936.44,-252"/>
<text text-anchor="middle" x="882" y="-229.8" font-family="Times,serif" font-size="14.00">AppComponent </text>
</g>
<!-- AppModule&#45;&gt;AppComponent  -->
<g id="edge6" class="edge">
<title>AppModule&#45;&gt;AppComponent </title>
<path fill="none" stroke="black" stroke-dasharray="1,5" d="M882,-187.11C882,-187.11 882,-205.99 882,-205.99"/>
<polygon fill="black" stroke="black" points="878.5,-205.99 882,-215.99 885.5,-205.99 878.5,-205.99"/>
</g>
<!-- !environment -->
<g id="node3" class="node">
<title>!environment</title>
<polygon fill="#8dd3c7" stroke="black" points="653.92,-122 650.92,-126 629.92,-126 626.92,-122 562.08,-122 562.08,-86 653.92,-86 653.92,-122"/>
<text text-anchor="middle" x="608" y="-99.8" font-family="Times,serif" font-size="14.00">!environment</text>
</g>
<!-- !environment&#45;&gt;AppModule -->
<g id="edge2" class="edge">
<title>!environment&#45;&gt;AppModule</title>
<path fill="none" stroke="black" d="M608,-122.24C608,-137.57 608,-157 608,-157 608,-157 830.09,-157 830.09,-157"/>
<polygon fill="black" stroke="black" points="830.09,-160.5 840.09,-157 830.09,-153.5 830.09,-160.5"/>
</g>
<!-- AppRoutingModule -->
<g id="node4" class="node">
<title>AppRoutingModule</title>
<polygon fill="#8dd3c7" stroke="black" points="544.27,-122 541.27,-126 520.27,-126 517.27,-122 415.73,-122 415.73,-86 544.27,-86 544.27,-122"/>
<text text-anchor="middle" x="480" y="-99.8" font-family="Times,serif" font-size="14.00">AppRoutingModule</text>
</g>
<!-- AppRoutingModule&#45;&gt;AppModule -->
<g id="edge3" class="edge">
<title>AppRoutingModule&#45;&gt;AppModule</title>
<path fill="none" stroke="black" d="M480,-122.02C480,-139.37 480,-163 480,-163 480,-163 830.12,-163 830.12,-163"/>
<polygon fill="black" stroke="black" points="830.12,-166.5 840.12,-163 830.12,-159.5 830.12,-166.5"/>
</g>
<!-- NotificationModule -->
<g id="node5" class="node">
<title>NotificationModule</title>
<polygon fill="#8dd3c7" stroke="black" points="397.7,-122 394.7,-126 373.7,-126 370.7,-122 270.3,-122 270.3,-86 397.7,-86 397.7,-122"/>
<text text-anchor="middle" x="334" y="-99.8" font-family="Times,serif" font-size="14.00">NotificationModule</text>
</g>
<!-- NotificationModule&#45;&gt;AppModule -->
<g id="edge4" class="edge">
<title>NotificationModule&#45;&gt;AppModule</title>
<path fill="none" stroke="black" d="M334,-122.11C334,-141.34 334,-169 334,-169 334,-169 829.91,-169 829.91,-169"/>
<polygon fill="black" stroke="black" points="829.91,-172.5 839.91,-169 829.91,-165.5 829.91,-172.5"/>
</g>
<!-- SharedModule -->
<g id="node6" class="node">
<title>SharedModule</title>
<polygon fill="#8dd3c7" stroke="black" points="252.42,-122 249.42,-126 228.42,-126 225.42,-122 153.58,-122 153.58,-86 252.42,-86 252.42,-122"/>
<text text-anchor="middle" x="203" y="-99.8" font-family="Times,serif" font-size="14.00">SharedModule</text>
</g>
<!-- SharedModule&#45;&gt;AppModule -->
<g id="edge5" class="edge">
<title>SharedModule&#45;&gt;AppModule</title>
<path fill="none" stroke="black" d="M203,-122.28C203,-143.32 203,-175 203,-175 203,-175 830.29,-175 830.29,-175"/>
<polygon fill="black" stroke="black" points="830.29,-178.5 840.29,-175 830.29,-171.5 830.29,-178.5"/>
</g>
<!-- AuthService -->
<g id="node8" class="node">
<title>AuthService</title>
<ellipse fill="#fdb462" stroke="black" cx="2137" cy="-104" rx="59.11" ry="18"/>
<text text-anchor="middle" x="2137" y="-99.8" font-family="Times,serif" font-size="14.00">AuthService</text>
</g>
<!-- AuthService&#45;&gt;AppModule -->
<g id="edge7" class="edge">
<title>AuthService&#45;&gt;AppModule</title>
<path fill="none" stroke="black" d="M2137,-122.25C2137,-145.02 2137,-181 2137,-181 2137,-181 933.76,-181 933.76,-181"/>
<polygon fill="black" stroke="black" points="933.76,-177.5 923.76,-181 933.76,-184.5 933.76,-177.5"/>
</g>
<!-- HttpErrorsResponseInterceptor -->
<g id="node9" class="node">
<title>HttpErrorsResponseInterceptor</title>
<ellipse fill="#fdb462" stroke="black" cx="1928" cy="-104" rx="131.9" ry="18"/>
<text text-anchor="middle" x="1928" y="-99.8" font-family="Times,serif" font-size="14.00">HttpErrorsResponseInterceptor</text>
</g>
<!-- HttpErrorsResponseInterceptor&#45;&gt;AppModule -->
<g id="edge8" class="edge">
<title>HttpErrorsResponseInterceptor&#45;&gt;AppModule</title>
<path fill="none" stroke="black" d="M1928,-122.28C1928,-143.32 1928,-175 1928,-175 1928,-175 933.97,-175 933.97,-175"/>
<polygon fill="black" stroke="black" points="933.97,-171.5 923.97,-175 933.97,-178.5 933.97,-171.5"/>
</g>
<!-- HttpMethodOverrideInterceptor -->
<g id="node10" class="node">
<title>HttpMethodOverrideInterceptor</title>
<ellipse fill="#fdb462" stroke="black" cx="1643" cy="-104" rx="134.83" ry="18"/>
<text text-anchor="middle" x="1643" y="-99.8" font-family="Times,serif" font-size="14.00">HttpMethodOverrideInterceptor</text>
</g>
<!-- HttpMethodOverrideInterceptor&#45;&gt;AppModule -->
<g id="edge9" class="edge">
<title>HttpMethodOverrideInterceptor&#45;&gt;AppModule</title>
<path fill="none" stroke="black" d="M1643,-122.11C1643,-141.34 1643,-169 1643,-169 1643,-169 933.73,-169 933.73,-169"/>
<polygon fill="black" stroke="black" points="933.73,-165.5 923.73,-169 933.73,-172.5 933.73,-165.5"/>
</g>
<!-- HttpSwitchUserInterceptor -->
<g id="node11" class="node">
<title>HttpSwitchUserInterceptor</title>
<ellipse fill="#fdb462" stroke="black" cx="1374" cy="-104" rx="115.72" ry="18"/>
<text text-anchor="middle" x="1374" y="-99.8" font-family="Times,serif" font-size="14.00">HttpSwitchUserInterceptor</text>
</g>
<!-- HttpSwitchUserInterceptor&#45;&gt;AppModule -->
<g id="edge10" class="edge">
<title>HttpSwitchUserInterceptor&#45;&gt;AppModule</title>
<path fill="none" stroke="black" d="M1374,-122.02C1374,-139.37 1374,-163 1374,-163 1374,-163 933.95,-163 933.95,-163"/>
<polygon fill="black" stroke="black" points="933.95,-159.5 923.95,-163 933.95,-166.5 933.95,-159.5"/>
</g>
<!-- SharingdataService -->
<g id="node12" class="node">
<title>SharingdataService</title>
<ellipse fill="#fdb462" stroke="black" cx="1154" cy="-104" rx="86.23" ry="18"/>
<text text-anchor="middle" x="1154" y="-99.8" font-family="Times,serif" font-size="14.00">SharingdataService</text>
</g>
<!-- SharingdataService&#45;&gt;AppModule -->
<g id="edge11" class="edge">
<title>SharingdataService&#45;&gt;AppModule</title>
<path fill="none" stroke="black" d="M1154,-122.24C1154,-137.57 1154,-157 1154,-157 1154,-157 933.9,-157 933.9,-157"/>
<polygon fill="black" stroke="black" points="933.9,-153.5 923.9,-157 933.9,-160.5 933.9,-153.5"/>
</g>
<!-- SynApiService -->
<g id="node13" class="node">
<title>SynApiService</title>
<ellipse fill="#fdb462" stroke="black" cx="980" cy="-104" rx="69.5" ry="18"/>
<text text-anchor="middle" x="980" y="-99.8" font-family="Times,serif" font-size="14.00">SynApiService</text>
</g>
<!-- SynApiService&#45;&gt;AppModule -->
<g id="edge12" class="edge">
<title>SynApiService&#45;&gt;AppModule</title>
<path fill="none" stroke="black" d="M917.16,-111.71C917.16,-111.71 917.16,-140.99 917.16,-140.99"/>
<polygon fill="black" stroke="black" points="913.66,-140.99 917.16,-150.99 920.66,-140.99 913.66,-140.99"/>
</g>
<!-- TokenInterceptorService -->
<g id="node14" class="node">
<title>TokenInterceptorService</title>
<ellipse fill="#fdb462" stroke="black" cx="785" cy="-104" rx="107.04" ry="18"/>
<text text-anchor="middle" x="785" y="-99.8" font-family="Times,serif" font-size="14.00">TokenInterceptorService</text>
</g>
<!-- TokenInterceptorService&#45;&gt;AppModule -->
<g id="edge13" class="edge">
<title>TokenInterceptorService&#45;&gt;AppModule</title>
<path fill="none" stroke="black" d="M866.1,-115.92C866.1,-115.92 866.1,-140.77 866.1,-140.77"/>
<polygon fill="black" stroke="black" points="862.6,-140.77 866.1,-150.77 869.6,-140.77 862.6,-140.77"/>
</g>
</g>
</svg>
